<svg width="656" height="932" viewBox="0 0 656 932" fill="none" xmlns="http://www.w3.org/2000/svg">
<path fill-rule="evenodd" clip-rule="evenodd" d="M155.149 77.5743C155.149 56.1528 162.723 37.8683 177.87 22.721C193.017 7.57366 211.302 0 232.723 0C254.145 0 272.429 7.57366 287.577 22.721C302.724 37.8683 310.298 56.1528 310.298 77.5743C310.298 98.9959 302.724 117.28 287.577 132.428C272.429 147.575 254.145 155.149 232.723 155.149C211.302 155.149 193.017 147.575 177.87 132.428C162.723 117.28 155.149 98.9959 155.149 77.5743Z" fill="#0050B3"/>
<path fill-rule="evenodd" clip-rule="evenodd" d="M155.149 544.128C155.149 522.707 162.723 504.422 177.87 489.275C193.017 474.128 211.302 466.554 232.723 466.554C254.145 466.554 272.429 474.128 287.577 489.275C302.724 504.422 310.298 522.707 310.298 544.128C310.298 565.55 302.724 583.834 287.577 598.982C272.429 614.129 254.145 621.703 232.723 621.703C211.302 621.703 193.017 614.129 177.87 598.982C162.723 583.834 155.149 565.55 155.149 544.128Z" fill="#0050B3"/>
<path fill-rule="evenodd" clip-rule="evenodd" d="M0 0H77.5743C120.417 0 155.149 34.7312 155.149 77.5743V155.149H0V0Z" fill="#FCB113"/>
<path fill-rule="evenodd" clip-rule="evenodd" d="M0.000244141 466.554H77.5746C120.418 466.554 155.149 501.285 155.149 544.128V621.703H0.000244141V466.554Z" fill="#FCB113"/>
<path fill-rule="evenodd" clip-rule="evenodd" d="M78.6827 310.297C121.526 310.297 156.257 345.028 156.257 387.872V465.446H1.1084V387.872C1.10839 345.028 35.8396 310.297 78.6827 310.297Z" fill="#E9FAFF"/>
<path fill-rule="evenodd" clip-rule="evenodd" d="M78.6827 776.851C121.526 776.851 156.257 811.583 156.257 854.426V932H1.1084V854.426C1.10839 811.583 35.8396 776.851 78.6827 776.851Z" fill="#E9FAFF"/>
<path fill-rule="evenodd" clip-rule="evenodd" d="M233.831 310.297H311.406V387.872C311.406 430.715 276.674 465.446 233.831 465.446H156.257V387.872C156.257 345.028 190.988 310.297 233.831 310.297Z" fill="#FCB113"/>
<path fill-rule="evenodd" clip-rule="evenodd" d="M233.831 776.851H311.406V854.426C311.406 897.269 276.674 932 233.831 932H156.257V854.426C156.257 811.583 190.988 776.851 233.831 776.851Z" fill="#FCB113"/>
<path fill-rule="evenodd" clip-rule="evenodd" d="M0.000244141 155.149H155.149V232.723C155.149 275.566 120.418 310.297 77.5746 310.297H0.000244141V155.149Z" fill="#0050B3"/>
<path fill-rule="evenodd" clip-rule="evenodd" d="M0.000244141 621.703H155.149V699.277C155.149 742.12 120.418 776.851 77.5746 776.851H0.000244141V621.703Z" fill="#0050B3"/>
<path fill-rule="evenodd" clip-rule="evenodd" d="M155.149 155.149H310.298V310.297H232.723C189.88 310.297 155.149 275.566 155.149 232.723V155.149Z" fill="#E9FAFF"/>
<path fill-rule="evenodd" clip-rule="evenodd" d="M155.149 621.703H310.298V776.851H232.723C189.88 776.851 155.149 742.12 155.149 699.277V621.703Z" fill="#E9FAFF"/>
<path fill-rule="evenodd" clip-rule="evenodd" d="M312.514 77.5743C312.514 56.1528 320.088 37.8683 335.235 22.721C350.382 7.57366 368.667 0 390.088 0C411.51 0 429.794 7.57366 444.942 22.721C460.089 37.8683 467.663 56.1528 467.663 77.5743C467.663 98.9959 460.089 117.28 444.942 132.428C429.794 147.575 411.51 155.149 390.088 155.149C368.667 155.149 350.382 147.575 335.235 132.428C320.088 117.28 312.514 98.9959 312.514 77.5743Z" fill="#0050B3"/>
<path fill-rule="evenodd" clip-rule="evenodd" d="M312.514 544.128C312.514 522.707 320.088 504.422 335.235 489.275C350.382 474.128 368.667 466.554 390.088 466.554C411.51 466.554 429.794 474.128 444.942 489.275C460.089 504.422 467.663 522.707 467.663 544.128C467.663 565.55 460.089 583.834 444.942 598.982C429.794 614.129 411.51 621.703 390.088 621.703C368.667 621.703 350.382 614.129 335.235 598.982C320.088 583.834 312.514 565.55 312.514 544.128Z" fill="#0050B3"/>
<path fill-rule="evenodd" clip-rule="evenodd" d="M545.237 0H622.811V155.149H467.663V77.5743C467.663 34.7312 502.394 0 545.237 0Z" fill="#FCB113"/>
<path fill-rule="evenodd" clip-rule="evenodd" d="M545.237 466.554H622.811V621.703H467.663V544.128C467.663 501.285 502.394 466.554 545.237 466.554Z" fill="#FCB113"/>
<path fill-rule="evenodd" clip-rule="evenodd" d="M544.129 310.297C586.972 310.297 621.703 345.028 621.703 387.872V465.446H466.554V387.872C466.554 345.028 501.285 310.297 544.129 310.297Z" fill="#E9FAFF"/>
<path fill-rule="evenodd" clip-rule="evenodd" d="M544.129 776.851C586.972 776.851 621.703 811.583 621.703 854.426V932H466.554V854.426C466.554 811.583 501.285 776.851 544.129 776.851Z" fill="#E9FAFF"/>
<path fill-rule="evenodd" clip-rule="evenodd" d="M311.406 310.297H388.98C431.823 310.297 466.554 345.028 466.554 387.872V465.446H388.98C346.137 465.446 311.406 430.715 311.406 387.872V310.297Z" fill="#FCB113"/>
<path fill-rule="evenodd" clip-rule="evenodd" d="M311.406 776.851H388.98C431.823 776.851 466.554 811.583 466.554 854.426V932H388.98C346.137 932 311.406 897.269 311.406 854.426V776.851Z" fill="#FCB113"/>
<path fill-rule="evenodd" clip-rule="evenodd" d="M467.663 155.149H622.811V310.297H545.237C502.394 310.297 467.663 275.566 467.663 232.723V155.149Z" fill="#0050B3"/>
<path fill-rule="evenodd" clip-rule="evenodd" d="M467.663 621.703H622.811V776.851H545.237C502.394 776.851 467.663 742.12 467.663 699.277V621.703Z" fill="#0050B3"/>
<path fill-rule="evenodd" clip-rule="evenodd" d="M312.514 155.149H467.663V232.723C467.663 275.566 432.931 310.297 390.088 310.297H312.514V155.149Z" fill="#E9FAFF"/>
<path fill-rule="evenodd" clip-rule="evenodd" d="M312.514 621.703H467.663V699.277C467.663 742.12 432.931 776.851 390.088 776.851H312.514V621.703Z" fill="#E9FAFF"/>
<path fill-rule="evenodd" clip-rule="evenodd" d="M623.919 77.5743C623.919 56.1528 631.493 37.8683 646.64 22.721C661.788 7.57366 680.072 0 701.494 0C722.915 0 741.2 7.57366 756.347 22.721C771.494 37.8683 779.068 56.1528 779.068 77.5743C779.068 98.9959 771.494 117.28 756.347 132.428C741.2 147.575 722.915 155.149 701.494 155.149C680.072 155.149 661.788 147.575 646.64 132.428C631.493 117.28 623.919 98.9959 623.919 77.5743Z" fill="#0050B3"/>
<path fill-rule="evenodd" clip-rule="evenodd" d="M623.919 544.128C623.919 522.707 631.493 504.422 646.64 489.275C661.788 474.128 680.072 466.554 701.494 466.554C722.915 466.554 741.2 474.128 756.347 489.275C771.494 504.422 779.068 522.707 779.068 544.128C779.068 565.55 771.494 583.834 756.347 598.982C741.2 614.129 722.915 621.703 701.494 621.703C680.072 621.703 661.788 614.129 646.64 598.982C631.493 583.834 623.919 565.55 623.919 544.128Z" fill="#0050B3"/>
<path fill-rule="evenodd" clip-rule="evenodd" d="M622.811 310.297H700.385C743.228 310.297 777.96 345.028 777.96 387.872V465.446H700.385C657.542 465.446 622.811 430.715 622.811 387.872V310.297Z" fill="#FCB113"/>
<path fill-rule="evenodd" clip-rule="evenodd" d="M622.811 776.851H700.385C743.228 776.851 777.96 811.583 777.96 854.426V932H700.385C657.542 932 622.811 897.269 622.811 854.426V776.851Z" fill="#FCB113"/>
<path fill-rule="evenodd" clip-rule="evenodd" d="M623.919 155.149H779.068V232.723C779.068 275.566 744.337 310.297 701.494 310.297H623.919V155.149Z" fill="#E9FAFF"/>
<path fill-rule="evenodd" clip-rule="evenodd" d="M623.919 621.703H779.068V699.277C779.068 742.12 744.337 776.851 701.494 776.851H623.919V621.703Z" fill="#E9FAFF"/>
</svg>
